<svg xmlns="http://www.w3.org/2000/svg" width="240" height="240" viewBox="0 0 240 240">
  <rect width="240" height="240" fill="none"/>

  <!-- Rosettes: filled center + soft outline ring -->
  <g fill="#fce8ef" stroke="#f0c4d4" stroke-width="1.6" opacity="0.55">
    <path d="M28 34c-6-8 6-14 14-8 8 6 6 16-2 18-8 2-14-4-12-10z"/>
    <path d="M82 18c-5-7 8-12 13-5 6 8 2 14-4 13-6-1-11-4-9-8z"/>
    <path d="M138 42c-7-6 5-15 13-9 9 7 5 15-3 16-7 1-13-3-10-7z"/>
    <path d="M52 78c-8-5 4-16 14-10 10 6 8 16 0 18-7 2-16-2-14-8z"/>
    <path d="M112 68c-6-8 7-13 12-6 7 9 3 15-5 14-7-1-10-5-7-8z"/>
    <path d="M168 88c-7-5 6-14 14-8 9 7 4 14-4 15-7 1-13-4-10-7z"/>
    <path d="M22 118c-6-7 7-12 12-5 8 9 2 15-6 14-7-1-10-5-6-9z"/>
    <path d="M78 128c-8-4 5-15 13-9 9 6 7 15-1 17-7 2-15-2-12-8z"/>
    <path d="M142 138c-6-8 8-12 13-5 7 8 2 14-6 13-7-1-10-4-7-8z"/>
    <path d="M198 118c-7-6 5-14 13-8 9 7 5 14-3 15-7 1-14-3-10-7z"/>
    <path d="M48 178c-6-7 7-11 11-4 7 8 2 14-6 13-7-1-9-5-5-9z"/>
    <path d="M108 188c-8-5 4-15 13-9 10 6 8 15 0 17-7 2-15-1-13-8z"/>
    <path d="M172 178c-6-8 7-12 12-5 8 9 2 14-6 13-7-1-10-5-6-8z"/>
    <path d="M218 48c-5-6 6-11 10-5 6 7 2 12-5 11-6-1-9-3-5-6z"/>
    <path d="M8 58c-4-6 6-10 9-4 5 6 1 10-4 9-5-1-7-3-5-5z"/>
    <path d="M188 18c-5-6 6-10 10-4 6 7 2 12-5 11-6-1-9-3-5-6z"/>
  </g>

  <!-- Outline rings (hollow rosette edges) -->
  <g fill="none" stroke="#ebb8cc" stroke-width="2" opacity="0.38" stroke-linecap="round" stroke-linejoin="round">
    <path d="M28 34c-10-4-8-14 4-14 10 0 14 8 10 14-4 6-12 6-14 0"/>
    <path d="M138 42c-10-3-8-13 5-13 11 0 14 9 9 14-5 5-12 4-14-1"/>
    <path d="M52 78c-11-2-10-13 3-15 12-2 16 8 10 14-6 6-14 5-13-1"/>
    <path d="M168 88c-10-3-9-13 4-13 11 0 14 9 8 14-6 5-13 3-12-1"/>
    <path d="M78 128c-11-1-10-12 4-14 13-2 16 8 9 14-7 6-15 4-13 0"/>
    <path d="M142 138c-10-4-8-14 5-13 12 1 14 10 8 14-6 4-14 3-13-1"/>
    <path d="M108 188c-10-2-9-13 4-14 12-1 15 8 9 14-6 6-14 4-13 0"/>
    <path d="M82 18c-8-5-6-12 4-11 9 1 12 7 8 12-4 5-10 4-12-1"/>
    <path d="M22 118c-8-4-6-12 5-11 10 1 12 8 7 12-5 4-11 3-12-1"/>
    <path d="M48 178c-8-4-6-11 4-10 9 1 11 7 7 11-4 4-10 3-11-1"/>
  </g>

  <!-- Small solid spots -->
  <g fill="#f0b8cc" opacity="0.32">
    <ellipse cx="65" cy="48" rx="3.5" ry="4.5" transform="rotate(25 65 48)"/>
    <ellipse cx="98" cy="42" rx="2.8" ry="3.5" transform="rotate(-15 98 42)"/>
    <ellipse cx="125" cy="28" rx="3" ry="3.8" transform="rotate(40 125 28)"/>
    <ellipse cx="155" cy="62" rx="2.5" ry="3.2" transform="rotate(-30 155 62)"/>
    <ellipse cx="35" cy="98" rx="3.2" ry="4" transform="rotate(20 35 98)"/>
    <ellipse cx="95" cy="105" rx="2.8" ry="3.5" transform="rotate(-20 95 105)"/>
    <ellipse cx="128" cy="98" rx="3" ry="3.8" transform="rotate(35 128 98)"/>
    <ellipse cx="185" cy="68" rx="2.5" ry="3" transform="rotate(-10 185 68)"/>
    <ellipse cx="18" cy="148" rx="3" ry="3.8" transform="rotate(15 18 148)"/>
    <ellipse cx="68" cy="158" rx="2.8" ry="3.5" transform="rotate(-25 68 158)"/>
    <ellipse cx="158" cy="168" rx="3.2" ry="4" transform="rotate(30 158 168)"/>
    <ellipse cx="205" cy="158" rx="2.5" ry="3.2" transform="rotate(-35 205 158)"/>
    <ellipse cx="118" cy="218" rx="3" ry="3.8" transform="rotate(10 118 218)"/>
    <ellipse cx="42" cy="218" rx="2.8" ry="3.5" transform="rotate(-20 42 218)"/>
    <ellipse cx="198" cy="198" rx="2.5" ry="3" transform="rotate(45 198 198)"/>
    <ellipse cx="8" cy="188" rx="2.2" ry="2.8" transform="rotate(-15 8 188)"/>
    <ellipse cx="225" cy="108" rx="2.5" ry="3" transform="rotate(25 225 108)"/>
    <ellipse cx="175" cy="28" rx="2.8" ry="3.5" transform="rotate(-40 175 28)"/>
  </g>
</svg>
